<?xml version="1.0" standalone="no"?>
<!DOCTYPE svg PUBLIC "-//W3C//DTD SVG 20010904//EN"
 "http://www.w3.org/TR/2001/REC-SVG-20010904/DTD/svg10.dtd">
<svg version="1.0" xmlns="http://www.w3.org/2000/svg"
 width="800.000000pt" height="800.000000pt" viewBox="0 0 800.000000 800.000000"
 preserveAspectRatio="xMidYMid meet">

<g transform="translate(0.000000,800.000000) scale(0.100000,-0.100000)"
fill="#000000" stroke="none">
<path d="M4015 6360 c-243 -22 -521 -81 -720 -155 -256 -94 -556 -267 -761
-440 l-91 -77 -16 -156 c-43 -403 -47 -729 -12 -857 9 -32 18 -61 20 -64 3 -2
24 11 47 30 436 352 907 617 1247 703 108 27 301 46 301 30 0 -22 -121 -247
-183 -339 -287 -432 -703 -765 -1187 -949 -69 -26 -135 -52 -148 -57 -50 -20
-116 -221 -148 -446 -16 -121 -25 -465 -12 -479 11 -10 242 48 426 107 961
309 1754 859 2263 1570 262 367 474 836 573 1266 13 56 12 62 -3 68 -263 103
-617 190 -941 230 -150 19 -516 27 -655 15z"/>
<path d="M5145 4288 c-154 -192 -506 -518 -725 -671 l-22 -15 21 -104 c26
-129 41 -254 41 -334 l0 -62 53 -6 c70 -9 465 10 605 28 137 18 247 47 371 97
112 46 141 64 141 87 0 34 -29 183 -50 254 -47 160 -117 329 -197 478 -41 75
-182 310 -186 310 -1 0 -24 -28 -52 -62z"/>
<path d="M4181 2941 c-35 -49 -23 -91 26 -91 32 0 73 81 53 104 -20 25 -56 19
-79 -13z"/>
<path d="M1270 2803 c-8 -3 -18 -11 -22 -17 -4 -6 -8 -102 -8 -214 l0 -202 28
-11 c42 -17 318 -6 364 13 64 28 73 53 73 208 0 208 -15 221 -265 226 -85 2
-162 1 -170 -3z m325 -97 c17 -12 20 -30 23 -119 6 -146 4 -147 -163 -147
l-125 0 0 140 0 140 123 0 c90 0 128 -4 142 -14z"/>
<path d="M1816 2794 c-14 -13 -16 -47 -16 -214 0 -167 2 -201 16 -214 8 -9 23
-16 33 -16 38 0 41 17 41 236 0 184 -2 213 -16 218 -25 10 -42 7 -58 -10z"/>
<path d="M2104 2801 c-79 -13 -114 -53 -114 -129 1 -92 43 -119 198 -125 68
-3 118 -10 127 -17 22 -18 19 -67 -4 -80 -11 -5 -80 -10 -153 -10 -151 0 -176
-8 -164 -53 8 -35 44 -41 200 -35 182 8 226 34 226 135 0 109 -38 135 -205
141 -60 2 -116 9 -122 14 -20 16 -15 56 6 68 11 5 67 10 125 10 57 0 111 3
120 6 23 9 21 61 -3 74 -21 11 -171 12 -237 1z"/>
<path d="M2442 2794 c-26 -18 -28 -37 -6 -58 11 -12 35 -16 85 -16 l69 0 0
-169 c0 -179 5 -201 49 -201 37 0 41 19 41 197 l0 173 73 0 c78 0 97 9 97 47
0 36 -35 43 -218 43 -136 0 -172 -3 -190 -16z"/>
<path d="M2898 2800 c-16 -10 -18 -32 -18 -218 0 -220 2 -232 47 -232 31 0 43
28 43 104 l0 66 88 0 87 0 47 -63 c84 -112 100 -123 132 -91 25 25 19 49 -29
108 l-45 55 29 16 c47 24 61 52 61 120 0 116 -36 136 -265 142 -105 2 -166 0
-177 -7z m333 -90 c14 -8 19 -21 19 -49 0 -35 -3 -40 -31 -50 -18 -6 -81 -11
-140 -11 l-109 0 0 60 0 60 121 0 c66 0 129 -5 140 -10z"/>
<path d="M3458 2799 c-16 -9 -18 -30 -18 -217 0 -218 3 -232 45 -232 42 0 45
14 45 230 0 211 -3 230 -39 230 -9 0 -24 -5 -33 -11z"/>
<path d="M3743 2800 c-104 -21 -113 -41 -113 -258 0 -189 5 -205 58 -186 26 9
27 12 30 96 l3 87 117 3 c114 3 117 4 120 26 7 45 -12 52 -129 52 l-109 0 0
40 c0 29 5 42 19 50 11 5 80 10 155 10 74 0 141 3 150 6 23 9 21 61 -3 74 -23
12 -237 12 -298 0z"/>
<path d="M4143 2802 c-6 -4 -61 -96 -123 -204 -117 -206 -125 -231 -75 -244
32 -8 41 -1 76 62 l31 54 118 0 118 0 31 -54 c35 -63 44 -70 76 -62 49 12 42
38 -71 234 -59 103 -114 195 -122 205 -16 18 -39 22 -59 9z m65 -185 c15 -29
28 -55 30 -59 2 -5 -29 -8 -68 -8 -39 0 -70 3 -68 8 33 69 63 120 70 116 5 -3
21 -29 36 -57z"/>
<path d="M4488 2799 c-16 -9 -18 -31 -18 -219 0 -197 1 -210 19 -220 23 -12
277 -13 340 -1 61 12 93 47 99 109 3 34 -1 60 -13 85 -13 27 -14 40 -6 56 6
11 11 42 11 70 0 69 -35 110 -106 122 -71 11 -306 10 -326 -2z m326 -85 c24
-9 21 -71 -3 -84 -11 -5 -72 -10 -135 -10 l-116 0 0 50 0 50 119 0 c66 0 126
-3 135 -6z m7 -184 c22 -12 26 -59 7 -78 -8 -8 -54 -12 -140 -12 l-128 0 0 50
0 50 121 0 c66 0 129 -5 140 -10z"/>
<path d="M5050 2803 c-8 -3 -18 -11 -22 -17 -4 -6 -8 -100 -8 -208 0 -208 4
-228 49 -228 30 0 40 22 43 95 l3 70 86 3 85 3 68 -86 c70 -88 90 -99 119 -67
25 27 22 38 -28 101 -25 31 -45 60 -45 63 0 3 11 9 25 12 57 14 86 132 49 196
-31 51 -72 62 -249 66 -88 2 -167 1 -175 -3z m334 -99 c21 -20 20 -68 0 -85
-10 -8 -57 -14 -136 -17 -137 -5 -138 -5 -138 71 l0 47 129 0 c104 0 133 -3
145 -16z"/>
<path d="M5596 2794 c-14 -13 -16 -47 -16 -214 0 -167 2 -201 16 -214 8 -9 23
-16 33 -16 38 0 41 17 41 236 0 184 -2 213 -16 218 -25 10 -42 7 -58 -10z"/>
<path d="M5883 2800 c-52 -11 -87 -33 -101 -66 -17 -36 -16 -266 2 -308 21
-50 69 -68 202 -74 143 -6 182 1 190 34 12 47 -6 54 -152 54 -107 0 -136 3
-148 16 -13 12 -16 39 -16 124 0 85 3 112 16 124 12 13 41 16 148 16 106 0
136 3 146 15 17 21 4 61 -22 69 -32 8 -215 5 -265 -4z"/>
<path d="M6437 2778 c-13 -18 -68 -111 -121 -206 -102 -181 -109 -206 -60
-218 31 -8 49 8 80 68 l24 48 119 0 120 0 30 -54 c33 -56 52 -70 82 -61 41 13
32 42 -67 218 -113 200 -138 237 -164 237 -10 0 -30 -15 -43 -32z m113 -223
c0 -3 -32 -5 -70 -5 l-70 0 26 53 c43 85 43 85 80 17 19 -33 34 -63 34 -65z"/>
<path d="M1543 2218 c-42 -11 -59 -39 -67 -109 -6 -48 -4 -57 14 -74 14 -12
36 -20 61 -20 58 0 86 33 94 110 3 33 2 66 -3 73 -13 19 -64 30 -99 20z m65
-41 c12 -14 6 -79 -10 -110 -7 -14 -19 -17 -46 -15 l-37 3 0 51 c1 29 7 59 14
68 16 19 64 21 79 3z"/>
<path d="M1904 2222 c-44 -6 -66 -45 -67 -118 -2 -66 -1 -69 27 -82 23 -11 36
-12 66 -3 49 15 59 28 70 97 14 85 -16 118 -96 106z m61 -88 c-1 -60 -16 -84
-55 -84 -41 0 -51 19 -41 75 10 54 23 66 66 63 29 -3 30 -4 30 -54z"/>
<path d="M3707 2188 c-45 -79 -87 -161 -87 -170 0 -4 6 -8 13 -8 11 0 117 189
117 210 0 23 -21 7 -43 -32z"/>
<path d="M5253 2218 c-40 -10 -59 -38 -68 -101 -8 -61 -1 -82 35 -97 38 -16
85 -5 109 26 27 35 38 130 16 154 -21 23 -51 29 -92 18z m65 -40 c13 -17 -1
-107 -19 -119 -8 -5 -27 -8 -44 -7 -28 3 -30 6 -33 46 -4 56 18 92 57 92 16 0
33 -6 39 -12z"/>
<path d="M6293 2218 c-18 -5 -39 -19 -47 -31 -16 -26 -30 -127 -19 -143 27
-38 96 -40 129 -3 22 24 11 36 -20 20 -38 -21 -70 -11 -74 23 -7 56 7 95 35
102 14 4 34 2 44 -5 21 -13 49 -15 49 -3 -1 31 -52 52 -97 40z"/>
<path d="M1266 2193 c-3 -16 -8 -48 -11 -73 -3 -25 -8 -57 -11 -72 -5 -23 -2
-28 15 -28 16 0 21 6 21 28 0 15 3 45 7 66 l6 39 16 -53 c9 -29 22 -55 28 -57
7 -3 26 21 44 52 17 31 33 54 35 53 1 -2 -1 -21 -6 -43 -14 -57 -12 -85 4 -85
16 0 22 20 31 105 4 33 9 68 12 78 4 15 0 18 -18 15 -17 -2 -33 -21 -59 -67
l-35 -64 -19 67 c-14 49 -23 66 -37 66 -11 0 -19 -10 -23 -27z"/>
<path d="M1670 2205 c0 -10 10 -15 31 -15 l31 0 -6 -47 c-4 -27 -10 -65 -13
-85 -4 -31 -2 -38 11 -38 9 0 16 1 17 3 0 1 6 38 12 82 l12 80 33 3 c20 2 32
9 32 18 0 11 -17 14 -80 14 -64 0 -80 -3 -80 -15z"/>
<path d="M2107 2213 c-3 -5 -8 -35 -11 -68 -4 -33 -10 -75 -13 -92 -4 -25 -2
-33 10 -33 18 0 27 21 27 60 0 58 12 64 29 14 9 -26 21 -49 28 -51 6 -2 28 24
48 59 20 35 34 54 30 43 -4 -11 -9 -44 -12 -72 -5 -45 -3 -53 11 -53 9 0 16 6
16 13 0 6 6 51 14 100 13 86 12 87 -8 87 -16 0 -31 -18 -57 -66 l-36 -66 -18
66 c-14 50 -22 66 -36 66 -10 0 -20 -3 -22 -7z"/>
<path d="M2340 2120 c-43 -86 -48 -100 -32 -100 10 0 24 12 30 26 10 21 18 25
50 22 30 -2 38 -7 40 -25 2 -15 10 -23 23 -23 15 0 19 5 15 18 -2 9 -12 54
-22 100 -24 115 -39 112 -104 -18z m70 20 c0 -33 -3 -40 -20 -40 -24 0 -24 1
-6 45 19 45 26 44 26 -5z"/>
<path d="M2496 2165 c14 -32 24 -75 24 -100 0 -59 25 -62 35 -6 4 22 24 65 46
95 44 62 46 66 21 66 -9 0 -28 -18 -42 -40 -14 -22 -28 -40 -31 -40 -4 0 -14
18 -23 40 -11 28 -22 40 -35 40 -19 0 -19 -2 5 -55z"/>
<path d="M2671 2203 c-31 -26 -49 -138 -25 -164 24 -27 68 -33 108 -14 40 19
45 28 53 105 4 45 2 60 -11 73 -23 23 -97 23 -125 0z m97 -26 c12 -14 6 -79
-10 -110 -7 -14 -19 -17 -46 -15 l-37 3 0 51 c1 29 7 59 14 68 16 19 64 21 79
3z"/>
<path d="M2842 2138 c-15 -106 -15 -118 2 -118 9 0 17 15 21 40 4 22 11 40 16
40 5 0 21 -18 35 -40 16 -24 34 -40 46 -40 19 0 19 1 -3 36 -18 30 -19 38 -8
45 8 5 17 9 20 9 8 0 29 47 29 65 0 29 -31 45 -89 45 l-58 0 -11 -82z m113 22
c0 -22 -5 -25 -37 -28 -36 -3 -38 -2 -38 28 0 30 2 31 38 28 32 -3 37 -6 37
-28z"/>
<path d="M3022 2131 c-15 -111 -15 -111 3 -111 8 0 15 3 15 8 0 8 17 120 25
165 3 21 1 27 -13 27 -15 0 -20 -14 -30 -89z"/>
<path d="M3110 2200 c-39 -39 -19 -82 45 -94 30 -6 36 -11 33 -29 -4 -27 -40
-35 -74 -16 -28 15 -43 5 -28 -18 29 -47 127 -30 140 23 9 36 -5 57 -47 69
-52 15 -62 24 -48 41 14 17 61 18 77 2 19 -19 40 6 22 27 -19 23 -95 20 -120
-5z"/>
<path d="M3260 2205 c0 -10 10 -15 31 -15 30 0 31 -2 25 -32 -18 -103 -19
-138 -3 -138 17 0 23 19 33 108 l7 62 33 0 c24 0 34 5 34 15 0 12 -16 15 -80
15 -64 0 -80 -3 -80 -15z"/>
<path d="M3427 2125 c-26 -52 -47 -97 -47 -100 0 -16 32 -1 42 20 9 20 18 25
49 25 33 0 40 -4 45 -25 4 -15 13 -25 24 -25 16 0 15 7 -5 98 -17 79 -25 98
-41 100 -15 2 -29 -17 -67 -93z m72 -2 c1 -17 -5 -23 -19 -23 -23 0 -24 3 -8
47 10 28 14 31 19 16 4 -10 8 -28 8 -40z"/>
<path d="M3835 2173 c-4 -27 -10 -72 -14 -100 -7 -46 -6 -53 9 -53 14 0 19 16
28 83 15 105 15 117 -2 117 -10 0 -17 -16 -21 -47z"/>
<path d="M3902 2138 c-15 -106 -15 -118 2 -118 15 0 25 40 27 104 l1 41 19
-62 c11 -35 25 -63 32 -63 12 0 67 82 67 100 0 5 4 11 9 15 6 3 6 -8 1 -27 -4
-18 -10 -50 -13 -70 -5 -32 -3 -38 12 -38 14 0 19 15 29 89 15 113 15 111 -6
111 -12 0 -30 -21 -52 -60 -19 -33 -36 -60 -40 -60 -3 0 -12 26 -20 58 -12 44
-20 58 -36 60 -19 3 -22 -5 -32 -80z"/>
<path d="M4137 2183 c-19 -124 -20 -163 -3 -163 9 0 16 8 16 19 0 39 11 51 47
51 46 0 69 14 81 49 7 20 7 35 -2 52 -10 21 -20 24 -72 27 l-61 3 -6 -38z m97
1 c19 -7 21 -35 4 -52 -7 -7 -27 -12 -46 -12 -27 0 -33 3 -28 16 3 9 6 24 6
35 0 20 31 26 64 13z"/>
<path d="M4338 2210 c-33 -20 -54 -144 -29 -174 19 -23 65 -29 104 -12 28 11
38 23 46 53 18 63 14 121 -8 133 -25 13 -91 13 -113 0z m91 -29 c17 -11 6
-104 -14 -121 -8 -6 -29 -10 -47 -8 l-33 3 2 55 c2 38 8 59 20 68 19 14 52 16
72 3z"/>
<path d="M4506 2158 c-4 -35 -10 -80 -13 -100 -4 -31 -2 -38 11 -38 11 0 18
12 22 40 4 22 11 40 15 40 5 0 22 -18 37 -40 15 -21 35 -39 45 -40 22 0 22 5
-5 43 -17 23 -19 32 -9 35 25 8 51 42 51 66 0 40 -25 56 -89 56 l-58 0 -7 -62z
m109 2 c0 -22 -5 -25 -37 -28 -34 -3 -38 -1 -38 21 0 32 9 39 45 35 25 -2 30
-7 30 -28z"/>
<path d="M4676 2205 c-4 -11 2 -15 24 -15 28 0 30 -2 29 -37 0 -21 -4 -59 -8
-85 -7 -42 -6 -48 9 -48 13 0 19 12 24 53 14 113 15 116 49 119 17 2 32 9 35
16 6 19 -154 17 -162 -3z"/>
<path d="M4840 2120 c-46 -91 -48 -100 -30 -100 12 0 25 10 32 25 9 20 18 25
50 25 32 0 38 -3 38 -20 0 -20 25 -38 36 -27 3 3 -4 49 -16 101 -29 130 -42
129 -110 -4z m74 18 c7 -36 5 -38 -19 -38 -14 0 -25 2 -25 5 0 7 33 75 35 72
2 -1 5 -19 9 -39z"/>
<path d="M5020 2208 c0 -7 -6 -52 -14 -100 l-13 -88 58 0 c82 0 99 17 106 104
5 59 3 71 -12 83 -24 17 -125 18 -125 1z m99 -27 c10 -7 12 -21 6 -57 -9 -62
-19 -74 -62 -74 -28 0 -33 3 -29 18 2 9 8 41 11 70 6 48 9 52 33 52 15 0 33
-4 41 -9z"/>
<path d="M5400 2208 c0 -7 -6 -52 -14 -100 -12 -84 -12 -88 6 -88 12 0 18 7
18 24 0 29 9 56 20 56 4 0 19 -18 34 -40 17 -25 34 -40 47 -40 21 0 21 0 -1
36 l-22 35 21 16 c34 23 45 61 26 89 -13 21 -23 24 -75 24 -41 0 -60 -4 -60
-12z m105 -48 c0 -22 -5 -25 -44 -28 -37 -3 -43 -1 -37 13 3 9 6 23 6 31 0 11
10 14 38 12 32 -3 37 -6 37 -28z"/>
<path d="M5640 2213 c0 -9 -17 -121 -25 -165 -4 -28 -4 -28 51 -28 30 0 64 5
74 10 40 21 56 161 21 180 -22 11 -121 14 -121 3z m98 -32 c10 -6 12 -21 7
-57 -9 -62 -19 -74 -62 -74 -34 0 -34 0 -28 38 3 20 8 52 11 70 4 27 9 32 32
32 15 0 33 -4 40 -9z"/>
<path d="M5817 2161 c-4 -33 -9 -78 -13 -100 -5 -33 -4 -41 9 -41 16 0 21 16
32 100 3 25 8 57 11 73 5 22 2 27 -14 27 -16 0 -20 -9 -25 -59z"/>
<path d="M5896 2203 c-2 -10 -7 -43 -11 -73 -3 -30 -9 -68 -12 -83 -4 -24 -2
-28 14 -25 12 2 20 15 23 37 7 48 24 49 51 2 16 -30 29 -41 46 -41 l24 0 -26
37 c-18 27 -21 39 -13 42 28 8 48 36 48 66 0 44 -16 55 -81 55 -46 0 -59 -3
-63 -17z m109 -23 c14 -23 -6 -48 -41 -52 -40 -5 -48 3 -40 38 5 20 13 24 41
24 18 0 37 -5 40 -10z"/>
<path d="M6077 2198 c-3 -13 -8 -50 -12 -83 -4 -33 -9 -68 -11 -77 -5 -16 3
-18 65 -18 56 0 71 3 71 15 0 11 -12 15 -51 15 -47 0 -50 2 -47 23 3 19 10 22
51 25 39 3 47 6 47 23 0 16 -7 19 -46 19 -38 0 -45 3 -40 16 3 9 6 20 6 25 0
5 23 9 50 9 38 0 50 4 50 15 0 12 -14 15 -64 15 -58 0 -64 -2 -69 -22z"/>
<path d="M6407 2213 c-15 -14 -6 -23 24 -23 l32 0 -7 -62 c-4 -35 -10 -73 -13
-85 -4 -18 -1 -23 15 -23 17 0 20 9 26 71 10 92 13 99 47 99 19 0 29 5 29 15
0 12 -15 15 -73 15 -41 0 -77 -3 -80 -7z"/>
<path d="M6596 2197 c-16 -16 -25 -41 -30 -78 -9 -69 -2 -85 39 -99 71 -24
118 15 130 106 5 45 3 59 -11 75 -26 28 -98 26 -128 -4z m102 -19 c13 -17 -1
-107 -19 -119 -8 -5 -27 -8 -44 -7 -28 3 -30 6 -33 46 -4 56 18 92 57 92 16 0
33 -6 39 -12z"/>
<path d="M2937 1875 c-26 -25 -29 -53 -13 -103 20 -60 65 -114 112 -137 67
-32 117 6 70 54 -21 20 -27 22 -40 12 -8 -7 -24 -10 -35 -6 -36 11 -81 105
-50 105 6 0 9 17 7 42 -3 47 -24 61 -51 33z"/>
<path d="M3794 1843 c-24 -50 -23 -136 2 -185 13 -26 23 -35 32 -29 11 7 11
16 -2 55 -20 58 -20 87 -1 133 28 65 -1 88 -31 26z"/>
<path d="M3976 1871 c-3 -5 1 -25 9 -45 20 -47 19 -107 -2 -151 -15 -31 -15
-37 -3 -45 20 -12 26 -6 44 47 21 61 20 108 -4 161 -18 41 -33 52 -44 33z"/>
<path d="M3200 1755 c0 -59 4 -105 9 -105 6 0 11 17 13 38 3 33 6 37 33 40 57
5 72 12 83 37 14 30 2 69 -27 84 -11 6 -40 11 -65 11 l-46 0 0 -105z m114 53
c18 -29 -4 -53 -53 -56 l-41 -3 0 41 0 41 41 -3 c27 -2 46 -9 53 -20z"/>
<path d="M3380 1755 l0 -105 39 0 c83 0 130 44 98 93 -10 15 -12 29 -6 38 26
41 -12 79 -81 79 l-50 0 0 -105z m108 48 c3 -17 -3 -24 -22 -29 -41 -10 -61
-1 -64 29 -3 27 -2 28 40 25 36 -2 44 -7 46 -25z m0 -62 c8 -4 12 -19 10 -32
-3 -21 -9 -24 -50 -27 l-48 -3 0 35 c0 35 1 36 38 36 20 0 43 -4 50 -9z"/>
<path d="M3540 1854 c0 -3 14 -25 30 -49 17 -24 30 -46 30 -49 0 -3 -14 -26
-32 -51 -17 -24 -28 -48 -24 -52 8 -8 26 11 57 57 l16 24 28 -42 c15 -23 34
-42 42 -42 16 0 14 4 -27 65 l-28 40 25 35 c40 58 45 70 30 70 -8 0 -27 -18
-41 -41 l-28 -41 -30 41 c-26 36 -48 52 -48 35z"/>
<path d="M3880 1836 c-24 -27 -21 -62 5 -52 12 4 15 -7 15 -65 0 -62 2 -70 18
-67 15 3 17 17 20 106 2 94 1 102 -16 102 -10 0 -29 -11 -42 -24z"/>
<path d="M4127 1853 c-20 -19 -5 -33 38 -33 25 0 45 -2 45 -4 0 -3 -18 -38
-40 -78 -22 -40 -40 -76 -40 -80 0 -5 9 -8 20 -8 14 0 32 24 69 92 27 50 47
97 44 105 -5 14 -123 20 -136 6z"/>
<path d="M4311 1794 c-58 -76 -56 -94 10 -94 35 0 39 -3 39 -26 0 -18 5 -25
17 -22 24 4 32 47 25 130 -9 98 -25 100 -91 12z m49 -24 c0 -28 -22 -51 -36
-37 -5 5 26 67 33 67 2 0 3 -14 3 -30z"/>
<path d="M4481 1794 c-56 -74 -55 -94 5 -94 26 0 33 -4 36 -22 2 -15 10 -23
22 -23 27 0 35 39 28 127 -9 98 -25 100 -91 12z m45 -50 c-6 -16 -36 -19 -36
-3 0 5 8 21 18 34 16 22 17 22 20 3 2 -11 1 -26 -2 -34z"/>
<path d="M4626 1832 c-24 -26 -25 -30 -11 -42 8 -7 16 -9 17 -4 1 5 4 -22 7
-61 5 -56 10 -70 24 -73 15 -3 17 7 17 102 0 118 -6 127 -54 78z"/>
<path d="M4742 1844 c-16 -11 -22 -25 -22 -54 0 -45 24 -65 71 -58 23 4 29 1
29 -14 0 -23 -27 -35 -49 -22 -18 11 -51 7 -51 -6 0 -16 44 -40 71 -40 15 0
37 8 49 18 20 16 22 27 21 88 -1 57 -5 72 -22 87 -26 21 -67 22 -97 1z m76
-51 c3 -20 -1 -23 -27 -23 -23 0 -31 5 -31 18 0 25 10 33 35 30 12 -2 21 -12
23 -25z"/>
<path d="M4912 1837 c-32 -34 -27 -54 11 -48 4 0 7 -30 7 -69 0 -63 2 -70 20
-70 19 0 20 7 20 105 0 95 -2 105 -18 105 -10 0 -28 -10 -40 -23z"/>
<path d="M5017 1832 c-20 -21 -24 -31 -16 -39 6 -6 18 -9 25 -6 11 4 14 -10
14 -67 0 -63 2 -71 18 -68 15 3 17 17 20 106 2 94 1 102 -16 102 -10 0 -30
-13 -45 -28z"/>
</g>
</svg>
